<svg width="183" height="91" viewBox="0 0 183 91" fill="none" xmlns="http://www.w3.org/2000/svg">
<path d="M0 -0.5C0 11.516 2.36671 23.4142 6.96503 34.5155C11.5633 45.6168 18.3032 55.7037 26.7997 64.2003C35.2963 72.6968 45.3832 79.4367 56.4845 84.035C67.5858 88.6333 79.4841 91 91.5 91C103.516 91 115.414 88.6333 126.516 84.035C137.617 79.4367 147.704 72.6968 156.2 64.2003C164.697 55.7037 171.437 45.6168 176.035 34.5155C180.633 23.4142 183 11.5159 183 -0.500008H169.164C169.164 9.69902 167.155 19.7982 163.252 29.2208C159.349 38.6435 153.629 47.2052 146.417 54.417C139.205 61.6288 130.644 67.3495 121.221 71.2525C111.798 75.1555 101.699 77.1643 91.5 77.1643C81.301 77.1643 71.2018 75.1555 61.7792 71.2525C52.3565 67.3495 43.7948 61.6288 36.583 54.417C29.3712 47.2052 23.6505 38.6435 19.7475 29.2209C15.8445 19.7982 13.8357 9.69903 13.8357 -0.5H0Z" fill="url(#paint0_linear_2708_5535)"/>
<defs>
<linearGradient id="paint0_linear_2708_5535" x1="91.5" y1="91" x2="91.5" y2="-63.5808" gradientUnits="userSpaceOnUse">
<stop stop-color="#0044A0" stop-opacity="0.18"/>
<stop offset="1" stop-color="#E2FFFF" stop-opacity="0.35"/>
</linearGradient>
</defs>
</svg>
